<svg xmlns="http://www.w3.org/2000/svg" width="1024" height="1024" viewBox="0 0 1024 1024">
  <!-- Brand mark: lowercase "k" + right arrow. Filled outline vectorized
       from the source artwork via potrace. White foreground; icon.json
       applies per-appearance fills / Liquid Glass material on top. -->
  <g transform="scale(0.5) translate(0,2048) scale(0.1,-0.1)" fill="#FFFFFF" stroke="none">
    <path d="M4600 14830 c0 -5 -13 -10 -30 -10 -16 0 -30 -4 -30 -10 0 -5 -7 -10
-15 -10 -20 0 -125 -105 -125 -125 0 -8 -4 -15 -10 -15 -5 0 -10 -9 -10 -20 0
-11 -4 -20 -10 -20 -7 0 -10 -1457 -10 -4350 0 -2893 3 -4350 10 -4350 6 0 10
-9 10 -20 0 -11 5 -20 10 -20 6 0 10 -9 10 -20 0 -11 5 -20 10 -20 6 0 10 -7
10 -15 0 -20 45 -65 65 -65 8 0 15 -4 15 -10 0 -5 9 -10 20 -10 11 0 20 -4 20
-10 0 -5 14 -10 30 -10 17 0 30 -4 30 -10 0 -7 183 -10 530 -10 347 0 530 3
530 10 0 6 14 10 30 10 17 0 30 5 30 10 0 6 9 10 20 10 11 0 20 5 20 10 0 6 7
10 15 10 20 0 105 85 105 105 0 8 5 15 10 15 6 0 10 18 10 40 0 22 5 40 10 40
7 0 10 327 10 960 0 633 3 960 10 960 6 0 10 11 10 25 0 19 61 86 275 300 151
151 282 275 290 275 8 0 15 5 15 10 0 6 26 10 58 10 46 0 60 -4 72 -20 8 -11
20 -20 28 -20 16 0 62 -45 62 -60 0 -6 36 -46 80 -90 44 -44 80 -84 80 -90 0
-6 36 -46 80 -90 44 -44 80 -84 80 -90 0 -6 23 -33 50 -60 28 -27 50 -54 50
-60 0 -6 32 -42 70 -80 39 -38 70 -74 70 -80 0 -6 32 -42 70 -80 39 -38 70
-74 70 -80 0 -6 27 -38 60 -70 33 -32 60 -64 60 -70 0 -6 32 -42 70 -80 39
-38 70 -74 70 -80 0 -6 31 -42 70 -80 39 -38 70 -74 70 -80 0 -6 27 -38 60
-70 33 -32 60 -64 60 -70 0 -6 27 -38 60 -70 33 -32 60 -64 60 -70 0 -6 23
-33 50 -60 28 -27 50 -54 50 -60 0 -6 36 -46 80 -90 44 -44 80 -84 80 -90 0
-6 27 -38 60 -70 33 -32 60 -64 60 -70 0 -6 31 -42 70 -80 39 -38 70 -74 70
-80 0 -6 27 -38 60 -70 33 -32 60 -64 60 -70 0 -6 32 -42 70 -80 39 -38 70
-74 70 -80 0 -6 23 -33 50 -60 28 -27 50 -56 50 -64 0 -9 7 -16 16 -16 9 0 29
-13 44 -30 15 -16 35 -30 44 -30 9 0 16 -4 16 -10 0 -5 9 -10 20 -10 11 0 20
-4 20 -10 0 -5 18 -10 40 -10 22 0 40 -4 40 -10 0 -7 253 -10 740 -10 487 0
740 3 740 10 0 6 11 10 25 10 17 0 41 15 70 45 l45 44 0 84 c0 71 -3 85 -20
97 -11 8 -20 21 -20 28 0 7 -18 31 -40 52 -22 21 -40 44 -40 50 0 6 -18 29
-40 50 -22 21 -40 44 -40 50 0 6 -31 42 -70 80 -38 38 -70 74 -70 80 0 6 -18
29 -40 50 -22 21 -40 44 -40 50 0 6 -27 38 -60 70 -33 32 -60 64 -60 70 0 6
-22 33 -50 60 -27 27 -50 54 -50 60 0 6 -22 33 -50 60 -27 27 -50 54 -50 60 0
6 -27 38 -60 70 -33 32 -60 64 -60 70 0 6 -31 42 -70 80 -39 38 -70 74 -70 80
0 6 -18 29 -40 50 -22 21 -40 44 -40 50 0 6 -27 38 -60 70 -33 32 -60 64 -60
70 0 6 -27 38 -60 70 -33 32 -60 64 -60 70 0 6 -22 33 -50 60 -27 27 -50 54
-50 60 0 6 -27 38 -60 70 -33 32 -60 64 -60 70 0 6 -22 33 -50 60 -27 27 -50
54 -50 60 0 6 -27 38 -60 70 -33 32 -60 64 -60 70 0 6 -27 38 -60 70 -33 32
-60 64 -60 70 0 6 -27 38 -60 70 -33 32 -60 64 -60 70 0 6 -31 42 -70 80 -39
38 -70 74 -70 80 0 6 -22 33 -50 60 -27 27 -50 54 -50 60 0 6 -31 42 -70 80
-39 38 -70 74 -70 80 0 6 -31 42 -70 80 -38 38 -70 74 -70 80 0 6 -27 38 -60
70 -33 32 -60 64 -60 70 0 6 -27 38 -60 70 -33 32 -60 64 -60 70 0 6 -22 33
-50 60 -27 27 -50 54 -50 60 0 6 -18 29 -40 50 -22 21 -40 46 -40 54 0 9 -4
16 -10 16 -5 0 -10 23 -10 50 0 28 5 50 10 50 6 0 10 7 10 15 0 20 1085 1105
1105 1105 8 0 15 9 15 20 0 11 7 20 15 20 20 0 105 85 105 105 0 8 7 15 16 15
20 0 44 24 44 44 0 9 7 16 15 16 17 0 785 764 785 780 0 16 47 60 65 60 8 0
15 7 15 15 0 8 104 119 230 245 127 126 230 237 230 245 0 8 5 15 10 15 6 0
10 27 10 60 0 33 -4 60 -10 60 -5 0 -10 9 -10 20 0 11 -4 20 -10 20 -5 0 -10
9 -10 20 0 13 -7 20 -20 20 -11 0 -20 5 -20 10 0 6 -9 10 -20 10 -11 0 -20 5
-20 10 0 7 -267 10 -780 10 -513 0 -780 -3 -780 -10 0 -5 -18 -10 -40 -10 -22
0 -40 -4 -40 -10 0 -5 -9 -10 -20 -10 -11 0 -20 -4 -20 -10 0 -5 -7 -10 -16
-10 -8 0 -42 -27 -74 -60 -32 -33 -66 -60 -74 -60 -9 0 -16 -7 -16 -15 0 -8
-270 -285 -600 -615 -330 -330 -600 -605 -600 -611 0 -14 -25 -39 -40 -39 -14
0 -120 -106 -120 -120 0 -16 -47 -60 -65 -60 -8 0 -15 -7 -15 -15 0 -20 -105
-125 -125 -125 -8 0 -15 -7 -15 -15 0 -20 -845 -865 -865 -865 -8 0 -15 -4
-15 -10 0 -5 -25 -10 -55 -10 -50 0 -59 3 -90 35 l-35 34 0 2356 c0 1563 -3
2355 -10 2355 -5 0 -10 14 -10 30 0 17 -4 30 -10 30 -5 0 -10 7 -10 15 0 20
-105 125 -125 125 -8 0 -15 5 -15 10 0 6 -13 10 -30 10 -16 0 -30 5 -30 10 0
7 -187 10 -540 10 -353 0 -540 -3 -540 -10z"/>
    <path d="M14700 11570 c0 -5 -18 -10 -40 -10 -22 0 -40 -4 -40 -10 0 -5 -13
-10 -30 -10 -16 0 -30 -4 -30 -10 0 -5 -7 -10 -15 -10 -9 0 -45 -29 -80 -65
-36 -35 -65 -71 -65 -80 0 -8 -4 -15 -10 -15 -5 0 -10 -9 -10 -20 0 -11 -4
-20 -10 -20 -5 0 -10 -9 -10 -20 0 -11 -4 -20 -10 -20 -6 0 -10 -47 -10 -120
0 -73 4 -120 10 -120 6 0 10 -13 10 -30 0 -16 5 -30 10 -30 6 0 10 -9 10 -20
0 -11 5 -20 10 -20 6 0 10 -7 10 -15 0 -9 68 -83 150 -165 83 -82 150 -154
150 -160 0 -6 198 -208 440 -450 242 -242 440 -447 440 -455 0 -13 -274 -15
-2460 -15 -1633 0 -2460 -3 -2460 -10 0 -5 -13 -10 -30 -10 -16 0 -30 -4 -30
-10 0 -5 -8 -10 -18 -10 -10 0 -24 -9 -32 -20 -8 -11 -20 -20 -27 -20 -17 0
-103 -86 -103 -103 0 -7 -9 -19 -20 -27 -12 -8 -20 -26 -20 -42 0 -15 -4 -28
-10 -28 -5 0 -10 -13 -10 -30 0 -16 -4 -30 -10 -30 -6 0 -10 -37 -10 -90 0
-53 4 -90 10 -90 6 0 10 -13 10 -30 0 -16 5 -30 10 -30 6 0 10 -9 10 -20 0
-11 5 -20 10 -20 6 0 10 -9 10 -20 0 -11 5 -20 10 -20 6 0 10 -7 10 -15 0 -19
84 -105 103 -105 7 0 19 -9 27 -20 8 -12 26 -20 42 -20 15 0 28 -4 28 -10 0
-5 14 -10 30 -10 17 0 30 -4 30 -10 0 -7 823 -10 2450 -10 2443 0 2450 0 2450
-20 0 -11 -7 -20 -15 -20 -18 0 -65 -44 -65 -60 0 -5 -243 -253 -540 -550
-297 -297 -540 -546 -540 -553 0 -7 -9 -19 -20 -27 -12 -8 -20 -26 -20 -42 0
-15 -4 -28 -10 -28 -5 0 -10 -9 -10 -20 0 -11 -4 -20 -10 -20 -6 0 -10 -43
-10 -110 0 -67 4 -110 10 -110 6 0 10 -13 10 -30 0 -16 5 -30 10 -30 6 0 10
-9 10 -20 0 -11 5 -20 10 -20 6 0 10 -7 10 -15 0 -19 104 -125 123 -125 7 0
19 -9 27 -20 8 -12 26 -20 42 -20 15 0 28 -4 28 -10 0 -5 14 -10 30 -10 17 0
30 -4 30 -10 0 -6 30 -10 70 -10 40 0 70 4 70 10 0 6 18 10 40 10 22 0 40 5
40 10 0 6 14 10 30 10 17 0 30 5 30 10 0 6 8 10 18 10 10 0 24 9 32 20 8 11
20 20 27 20 16 0 103 85 103 100 0 5 315 325 700 710 385 385 700 704 700 710
0 6 90 100 200 210 110 110 200 206 200 215 0 8 5 15 10 15 6 0 10 9 10 20 0
11 5 20 10 20 6 0 10 9 10 20 0 11 5 20 10 20 6 0 10 14 10 30 0 17 5 30 10
30 6 0 10 43 10 110 0 67 -4 110 -10 110 -5 0 -10 14 -10 30 0 17 -4 30 -10
30 -5 0 -10 9 -10 20 0 11 -4 20 -10 20 -5 0 -10 9 -10 20 0 11 -4 20 -10 20
-5 0 -10 7 -10 15 0 9 -36 51 -80 95 -44 44 -80 84 -80 90 0 15 -25 40 -40 40
-14 0 -40 25 -40 39 0 6 -180 191 -400 411 -220 220 -400 404 -400 410 0 6
-184 195 -410 420 -225 225 -410 417 -410 425 0 8 -7 15 -16 15 -9 0 -29 14
-44 30 -15 17 -35 30 -44 30 -9 0 -16 5 -16 10 0 6 -13 10 -30 10 -16 0 -30 5
-30 10 0 6 -18 10 -40 10 -22 0 -40 5 -40 10 0 6 -27 10 -60 10 -33 0 -60 -4
-60 -10z"/>
  </g>
</svg>
